<?xml version="1.0" encoding="UTF-8"?>
<svg width="55px" height="55px" viewBox="0 0 55 55" version="1.1" xmlns="http://www.w3.org/2000/svg" xmlns:xlink="http://www.w3.org/1999/xlink">
    <title>severity-level-2of5</title>
    <g id="severity-level-2of5" stroke="none" stroke-width="1" fill="currentColor" fill-rule="evenodd">
        <path d="M40.824,8.1224 L28.024,0.1224 C27.7648,-0.0408 27.4368,-0.0408 27.1776,0.1224 L14.3776,8.1224 C14.1424,8.268 14,8.524 14,8.8008 L14,13.6008 C14,13.8904 14.1584,14.1592 14.4128,14.3 C14.6656,14.4408 14.9808,14.4312 15.224,14.2792 L27.6,6.5448 L39.9776,14.2792 C40.1056,14.3592 40.2544,14.4008 40.4,14.4008 C40.5328,14.4008 40.6672,14.3672 40.7888,14.3 C41.0432,14.1592 41.2,13.8904 41.2,13.6008 L41.2,8.8008 C41.2,8.524 41.0576,8.268 40.824,8.1224" id="Fill-17" fill="currentColor" opacity="0.2"></path>
        <path d="M28.024,9.89620952 C27.7648,9.73300952 27.4368,9.73300952 27.1776,9.89620952 L14.3776,17.8962095 C14.1424,18.0418095 14,18.2978095 14,18.5746095 L14,23.3746095 C14,23.6642095 14.1584,23.9330095 14.4128,24.0738095 C14.6656,24.2146095 14.9808,24.2050095 15.224,24.0530095 L27.6,16.3186095 L39.9776,24.0530095 C40.1056,24.1330095 40.2544,24.1746095 40.4,24.1746095 C40.5328,24.1746095 40.6672,24.1410095 40.7888,24.0738095 C41.0432,23.9330095 41.2,23.6642095 41.2,23.3746095 L41.2,18.5746095 C41.2,18.2978095 41.0576,18.0418095 40.824,17.8962095 L28.024,9.89620952 Z" id="Fill-20" fill="currentColor" opacity="0.2"></path>
        <path d="M28.024,19.670019 C27.7648,19.506819 27.4368,19.506819 27.1776,19.670019 L14.3776,27.670019 C14.1424,27.815619 14,28.071619 14,28.348419 L14,33.148419 C14,33.438019 14.1584,33.706819 14.4128,33.847619 C14.6656,33.988419 14.9808,33.980419 15.224,33.826819 L27.6,26.092419 L39.9776,33.826819 C40.1056,33.906819 40.2544,33.948419 40.4,33.948419 C40.5328,33.948419 40.6672,33.914819 40.7888,33.847619 C41.0432,33.706819 41.2,33.438019 41.2,33.148419 L41.2,28.348419 C41.2,28.071619 41.0576,27.815619 40.824,27.670019 L28.024,19.670019 Z" id="Fill-22" fill="currentColor" opacity="0.2"></path>
        <path d="M18,54.9996 C17.7872,54.9996 17.584,54.9148 17.4336,54.766 L14.2336,51.566 C14.0848,51.4156 14,51.2124 14,50.9996 L14,38.1222286 C14,37.8454286 14.1424,37.5894286 14.376,37.4438286 L27.176,29.4438286 C27.4352,29.2822286 27.7648,29.2822286 28.024,29.4438286 L40.824,37.4438286 C41.0576,37.5894286 41.2,37.8454286 41.2,38.1222286 L41.2,50.9996 C41.2,51.2124 41.1152,51.4156 40.9648,51.566 L37.7648,54.766 C37.616,54.9148 37.4128,54.9996 37.2,54.9996 L18,54.9996 Z" id="Mask" fill="currentColor"></path>
    </g>
</svg>