<?xml version="1.0" encoding="UTF-8"?>
<svg width="55px" height="55px" viewBox="0 0 55 55" version="1.1" xmlns="http://www.w3.org/2000/svg" xmlns:xlink="http://www.w3.org/1999/xlink">
    <title>severity-level-2of4</title>
    <g id="severity-level-2of4" stroke="none" stroke-width="1" fill="none" fill-rule="evenodd">
        <path d="M31.1378,9.567 C34.2888,13.223 37.0548,17.1 37.9058,22.043 C40.1988,21.754 39.6398,19.622 40.6588,18.706 C43.2378,19.023 48.8658,28.697 49.1268,33.262 C49.5928,41.403 44.4678,48.781 36.4438,50.657 C37.6648,47.326 40.3768,45.011 40.4708,41.66 C40.5638,38.329 40.6078,35.043 38.8648,32.032 C35.3148,33.485 35.3128,33.486 33.4468,30.651 C33.2638,30.374 33.1378,30.059 32.9488,29.787 C31.8258,28.17 30.9668,25.541 28.9488,25.732 C26.6038,25.953 27.5678,29.05 26.5528,30.656 C26.2088,31.201 26.1848,31.936 25.9158,32.541 C24.2198,36.362 22.0498,36.765 19.1628,33.792 C18.6008,33.213 18.1408,32.532 17.6198,31.88 C13.7648,36.266 13.2978,41.682 16.3278,46.977 C17.2278,48.55 18.3418,50.002 19.3578,51.51 C12.8358,50.904 8.7128,46.91 6.4088,41.294 C4.1578,35.805 4.4768,30.187 8.2928,25.198 C8.5958,24.802 8.9038,24.383 9.2928,24.085 C13.3038,21.005 15.4108,17.12 14.0238,11.688 C18.2638,11.921 19.0708,16.262 22.5078,17.436 C24.2338,12.266 22.2028,8.228 19.1308,4 C23.5938,4.228 26.2338,7.41 29.7298,8.541 C30.0908,9.14 30.5878,9.53 31.3058,9.59 L31.1378,9.567 Z" id="Fill-1" fill="#000000"></path>
    </g>
</svg>