<?xml version="1.0" encoding="UTF-8"?>
<svg width="55px" height="55px" viewBox="0 0 55 55" version="1.1" xmlns="http://www.w3.org/2000/svg" xmlns:xlink="http://www.w3.org/1999/xlink">
    <title>severity-level-1of2</title>
    <g id="severity-level-1of2" stroke="none" stroke-width="1" fill="none" fill-rule="evenodd">
        <path d="M2.59519504e-06,29.931385 C0.00379424519,33.4103224 2.82311443,36.2296134 6.30208794,36.2334024 L19.41042,36.2334024 C19.5919704,36.2334784 19.7627403,36.3195989 19.8707284,36.4655396 C19.9787165,36.6114802 20.011141,36.7999667 19.9581283,36.973603 C18.8112563,40.0679601 18.4782598,43.4049921 18.9910451,46.66496 C20.4416699,51.8257393 23.7004196,53.2786408 26.0585444,52.9578108 C28.6170084,52.536955 30.4624917,50.2780047 30.3645857,47.6870326 C30.3645857,40.7685633 36.5383351,33.2061424 41.9443762,31.0955395 C42.2005688,32.0868479 43.0907349,32.7824299 44.1145844,32.7913551 L52.7083336,32.7913551 C53.973986,32.7913551 55.0000026,31.7653517 55.0000026,30.4997124 L55.0000026,5.2916427 C55.0000026,4.02600338 53.973986,3 52.7083336,3 L44.1145844,3 C42.8489319,3 41.8229179,4.02600338 41.8229179,5.2916427 L41.8229179,6.04559315 C39.4647931,5.70872167 37.6979183,5.38560005 36.1808351,5.11060293 C33.1388375,4.4640157 30.0370387,4.14062695 26.927086,4.14582135 L12.0312541,4.14582135 C6.86125455,4.14582135 6.30208794,7.35412113 6.30208794,8.72910675 C6.30163079,9.42377614 6.42822739,10.112672 6.67562957,10.7617938 C4.3752952,12.2178747 3.41735318,15.0916709 4.38396312,17.6367219 C1.89722593,19.2091078 1.00575182,22.4094667 2.32146331,25.0410195 C0.850993872,26.2386278 -0.00171678709,28.0349414 2.59519504e-06,29.931385 Z" id="Path" fill="#000000" opacity="0.2" transform="translate(27.500001, 28.000000) scale(-1, -1) translate(-27.500001, -28.000000) "></path>
        <path d="M0,29.931385 C0.00379165017,33.4103224 2.82311197,36.2296134 6.30208564,36.2334024 L19.4104184,36.2334024 C19.5919687,36.2334784 19.7627386,36.3195989 19.8707267,36.4655396 C19.9787149,36.6114802 20.0111394,36.7999667 19.9581267,36.973603 C18.8112546,40.0679601 18.4782581,43.4049921 18.9910434,46.66496 C20.4416683,51.8257393 23.7004181,53.2786408 26.058543,52.9578108 C28.6170071,52.536955 30.4624905,50.2780047 30.3645845,47.6870326 C30.3645845,40.7685633 36.5383342,33.2061424 41.9443756,31.0955395 C42.2005682,32.0868479 43.0907343,32.7824299 44.1145838,32.7913551 L52.7083334,32.7913551 C53.9739859,32.7913551 55,31.7653517 55,30.4997124 L55,5.2916427 C55,4.02600338 53.9739859,3 52.7083334,3 L44.1145838,3 C42.8489314,3 41.8229173,4.02600338 41.8229173,5.2916427 L41.8229173,6.04559315 C39.4647924,5.70872167 37.6979175,5.38560005 36.1808342,5.11060293 C33.1388365,4.4640157 30.0370375,4.14062695 26.9270847,4.14582135 L12.031252,4.14582135 C6.86125228,4.14582135 6.30208564,7.35412113 6.30208564,8.72910675 C6.3016285,9.42377614 6.4282251,10.112672 6.67562729,10.7617938 C4.37529281,12.2178747 3.41735074,15.0916709 4.38396073,17.6367219 C1.89722342,19.2091078 1.00574927,22.4094667 2.32146083,25.0410195 C0.850991317,26.2386278 -0.00171938236,28.0349414 0,29.931385 Z M47,9.5 C47,8.67157288 47.6715729,8 48.5,8 C49.3284271,8 50,8.67157288 50,9.5 C50,10.3284271 49.3284271,11 48.5,11 C48.1021753,11 47.7206444,10.8419647 47.4393398,10.5606602 C47.1580353,10.2793556 47,9.89782473 47,9.5 L47,9.5 Z M5,30.367271 C5.00127861,29.4110731 5.76510372,28.6362387 6.70771548,28.6349663 L7.84617627,28.6349663 C9.10368534,28.6349663 10.1230979,27.6008607 10.1230979,26.3252267 C10.1230979,25.0495927 9.10368534,24.0154871 7.84617627,24.0154871 C7.21742174,24.0154871 6.70771548,23.4984343 6.70771548,22.8606173 C6.70771548,22.2228003 7.21742174,21.7057475 7.84617627,21.7057475 L10.1230979,21.7057475 C11.3806069,21.7057475 12.4000194,20.6716418 12.4000194,19.3960079 C12.4000194,18.1203739 11.3806069,17.0862683 10.1230979,17.0862683 C9.49434332,17.0862683 8.98463707,16.5692155 8.98463707,15.9313985 C8.98463707,15.2935815 9.49434332,14.7765287 10.1230979,14.7765287 L12.4000194,14.7765287 C13.6575285,14.7765287 14.676941,13.742423 14.676941,12.4667891 C14.676941,11.1911551 13.6575285,10.1570495 12.4000194,10.1570495 C11.8121884,10.1494153 11.3267562,9.68901425 11.279774,9.09456927 C11.6487087,9.02211403 12.0243922,8.99113042 12.4000194,9.00217968 L27.2000097,9.00217968 C30.0140779,8.99870995 32.8205559,9.2983459 35.5722504,9.89604891 C37.2435108,10.2078638 39.2631403,10.5774221 42,10.9585291 L42,26.7340506 C34.0421591,28.8336039 26.0615489,39.1119451 26.0615489,48.2677529 C26.0615489,48.7112229 25.8816721,48.9606748 25.7154568,48.9976306 C25.3443186,49.0461352 24.3493039,48.3601425 23.7003812,45.9949691 C23.0309663,43.5789815 24.6817344,38.1718811 25.8771183,35.3285917 C26.1776654,34.6152384 26.1051155,33.7964768 25.6839799,33.148928 C25.2628443,32.5013792 24.5493778,32.1115421 23.7846273,32.1111244 L6.70771548,32.1111244 C6.25301605,32.1105168 5.81727914,31.9262247 5.49682775,31.5989874 C5.17637636,31.2717501 4.99760207,30.828518 5,30.367271 Z" id="Shape" fill="#000000" fill-rule="nonzero" transform="translate(27.500000, 28.000000) scale(-1, -1) translate(-27.500000, -28.000000) "></path>
    </g>
</svg>