<?xml version="1.0" encoding="UTF-8"?>
<svg width="55px" height="55px" viewBox="0 0 55 55" version="1.1" xmlns="http://www.w3.org/2000/svg" xmlns:xlink="http://www.w3.org/1999/xlink">
    <title>severity-level-5of5</title>
    <g id="severity-level-5of5" stroke="none" stroke-width="1" fill="none" fill-rule="evenodd">
        <path d="M18,54.9996 C17.7872,54.9996 17.584,54.9148 17.4336,54.766 L14.2336,51.566 C14.0848,51.4156 14,51.2124 14,50.9996 L14,8.8008 C14,8.524 14.1424,8.268 14.376,8.1224 L27.176,0.1224 C27.4352,-0.0392 27.7648,-0.0392 28.024,0.1224 L40.824,8.1224 C41.0576,8.268 41.2,8.524 41.2,8.8008 L41.2,50.9996 C41.2,51.2124 41.1152,51.4156 40.9648,51.566 L37.7648,54.766 C37.616,54.9148 37.4128,54.9996 37.2,54.9996 L18,54.9996 Z" id="Mask" fill="#000000"></path>
    </g>
</svg>