<?xml version="1.0" encoding="UTF-8"?>
<svg width="55px" height="55px" viewBox="0 0 55 55" version="1.1" xmlns="http://www.w3.org/2000/svg" xmlns:xlink="http://www.w3.org/1999/xlink">
    <title>severity-level-4of4</title>
    <g id="severity-level-4of4" stroke="none" stroke-width="1" fill="none" fill-rule="evenodd">
        <path d="M30.7211,40.2202 C30.7701,37.7662 28.9821,35.4502 27.1651,35.5002 C25.7591,35.5392 24.0441,37.9462 24.1131,39.9852 C24.2381,43.6752 27.1061,40.5672 28.4841,41.6572 C29.7701,42.6742 30.5131,41.4422 30.7211,40.2202 M24.9511,30.2602 C22.4241,29.1022 19.9361,27.8082 17.3331,26.8162 C15.1131,25.9702 13.2811,26.8882 12.4041,28.9112 C11.4421,31.1302 12.3551,33.9602 14.3521,34.9532 C19.6171,37.5692 22.8191,36.1732 24.9511,30.2602 M29.3391,30.2532 C31.5351,36.2302 33.7201,37.2872 39.4181,35.1442 C41.7721,34.2582 42.8921,31.4782 41.9121,28.9542 C41.0721,26.7882 39.0861,25.9712 36.5661,26.9802 C34.1121,27.9622 31.7431,29.1542 29.3391,30.2532 M36.1631,40.3892 C34.7121,43.1182 37.7171,46.6182 34.9321,49.1262 C33.5611,48.9262 34.3201,47.1052 33.0451,47.0452 C32.5911,46.9392 32.3601,47.1072 32.3081,47.5412 C32.2491,48.0322 32.1731,48.5222 32.1261,49.0142 C32.0331,49.9772 32.1411,51.2552 30.7111,50.9882 C30.2931,50.9092 30.1041,49.6002 29.7151,48.6132 C28.1161,49.1902 29.6241,52.3312 27.1071,51.8562 C25.3201,51.5192 26.8281,49.3342 25.4361,48.7702 C24.5581,48.9472 24.6561,49.7412 24.3781,50.3022 C23.8231,51.4222 23.1161,51.1412 22.5491,50.3462 C21.8131,49.3152 22.8801,47.7432 21.6851,46.8432 C20.1211,46.8662 21.4751,48.9672 20.1221,48.8892 C18.8501,48.8172 18.6551,47.6672 18.6181,46.6762 C18.5461,44.7082 19.4391,42.7722 18.8631,40.6962 C17.4681,39.6812 16.0161,40.6802 14.6071,40.6802 C10.3311,40.6792 8.4491,38.4792 9.7131,34.4132 C10.3521,32.3562 10.3381,30.4972 9.4611,28.6202 C4.7571,18.5532 12.1331,7.5172 21.2731,4.8972 C32.6671,1.6322 43.4551,7.5292 46.3481,18.4502 C47.2581,21.8832 46.5711,25.0342 45.4431,28.1942 C44.7061,30.2552 44.2401,32.1712 45.0541,34.4482 C46.3801,38.1622 44.4851,40.5532 40.6261,40.6242 C39.1551,40.6512 37.7311,39.9022 36.1631,40.3892" id="Fill-1" fill="#000000"></path>
    </g>
</svg>