<?xml version="1.0" encoding="UTF-8"?>
<svg width="55px" height="55px" viewBox="0 0 55 55" version="1.1" xmlns="http://www.w3.org/2000/svg" xmlns:xlink="http://www.w3.org/1999/xlink">
    <title>severity-level-4of5</title>
    <g id="severity-level-4of5" stroke="none" stroke-width="1" fill="currentColor" fill-rule="evenodd">
        <path d="M40.824,8.1224 L28.024,0.1224 C27.7648,-0.0408 27.4368,-0.0408 27.1776,0.1224 L14.3776,8.1224 C14.1424,8.268 14,8.524 14,8.8008 L14,13.6008 C14,13.8904 14.1584,14.1592 14.4128,14.3 C14.6656,14.4408 14.9808,14.4312 15.224,14.2792 L27.6,6.5448 L39.9776,14.2792 C40.1056,14.3592 40.2544,14.4008 40.4,14.4008 C40.5328,14.4008 40.6672,14.3672 40.7888,14.3 C41.0432,14.1592 41.2,13.8904 41.2,13.6008 L41.2,8.8008 C41.2,8.524 41.0576,8.268 40.824,8.1224" id="Fill-17" fill="currentColor" opacity="0.2"></path>
        <path d="M18,54.9996 C17.7872,54.9996 17.584,54.9148 17.4336,54.766 L14.2336,51.566 C14.0848,51.4156 14,51.2124 14,50.9996 L14,18.4522095 C14,18.1754095 14.1424,17.9194095 14.376,17.7738095 L27.176,9.77380952 C27.4352,9.61220952 27.7648,9.61220952 28.024,9.77380952 L40.824,17.7738095 C41.0576,17.9194095 41.2,18.1754095 41.2,18.4522095 L41.2,50.9996 C41.2,51.2124 41.1152,51.4156 40.9648,51.566 L37.7648,54.766 C37.616,54.9148 37.4128,54.9996 37.2,54.9996 L18,54.9996 Z" id="Mask" fill="currentColor"></path>
    </g>
</svg>