<?xml version="1.0" encoding="UTF-8"?>
<svg width="55px" height="55px" viewBox="0 0 55 55" version="1.1" xmlns="http://www.w3.org/2000/svg" xmlns:xlink="http://www.w3.org/1999/xlink">
    <title>severity-level-3of4</title>
    <g id="severity-level-3of4" stroke="none" stroke-width="1" fill="currentColor" fill-rule="evenodd">
        <path d="M38.6040613,18.8316076 C39.0807127,18.5865575 39.4374435,18.1584805 39.5925228,17.6454537 L39.5925228,17.6256845 C39.7465211,17.10872 39.674709,16.5507398 39.3948305,16.0896153 L33.4442921,5.77007688 C33.1717693,5.3055519 32.5775296,5.14468523 32.1078921,5.40829996 C29.3867382,6.99207653 26.0235058,6.98754387 23.3066306,5.39643842 C23.0795157,5.26092107 22.8075659,5.2220696 22.5515901,5.28857131 C22.2956142,5.35507303 22.0769641,5.52138079 21.9445306,5.75030765 L16.0137615,16.0540307 C15.7207618,16.526916 15.644471,17.1026962 15.8042076,17.6355691 C15.9592869,18.1485959 16.3160178,18.5766729 16.7926691,18.8217229 C23.6326165,22.3658491 31.7680678,22.3658491 38.6080151,18.8217229 L38.6040613,18.8316076 Z" id="Path" fill="currentColor" fill-rule="nonzero" transform="translate(27.697186, 13.368314) scale(1, -1) translate(-27.697186, -13.368314) "></path>
        <path d="M40.5078382,27.3101569 C40.0542852,27.0138463 39.4990022,26.9166539 38.971769,27.0412954 C38.4385392,27.1687875 37.9810937,27.5097273 37.7065382,27.9842877 L31.7559998,38.3038261 C31.4840676,38.7756296 31.644952,39.3785039 32.1157998,39.6520876 C34.8263748,41.2430809 36.5069593,44.1362959 36.5460844,47.2790568 C36.5460844,47.5775722 36.5282921,47.8602722 36.5085229,48.2101875 C36.4927233,48.482128 36.589847,48.7485347 36.7769594,48.9464997 C36.9640719,49.1444647 37.2245857,49.2564384 37.4969844,49.2559812 L49.4375997,49.2559812 C49.9841317,49.2497874 50.5053731,49.0247706 50.8847074,48.6312722 C51.2236373,48.2497167 51.4119823,47.7577706 51.4145228,47.247426 L51.4145228,47.2039337 C51.0790927,39.2349925 47.0459316,31.8785124 40.5078382,27.3101569 Z" id="Path" fill="currentColor" fill-rule="nonzero" transform="translate(41.519148, 38.122119) scale(1, -1) translate(-41.519148, -38.122119) "></path>
        <path d="M17.7040307,27.9732558 C17.4263251,27.5021756 16.9675644,27.1656082 16.4348461,27.042125 C15.9071632,26.9155061 15.3505861,27.0143576 14.8987768,27.3149404 C8.35931349,31.8918576 4.32902857,39.2571978 4,47.2324403 C4.0037721,47.7636466 4.20616702,48.2742177 4.56737692,48.6637326 C4.94113071,49.0388282 5.44742888,49.2518569 5.97692306,49.2568095 L17.9175384,49.2568095 C18.1924245,49.2467398 18.4514293,49.1254428 18.6351614,48.9207326 C18.8212115,48.7123775 18.916548,48.4384629 18.9000691,48.1596172 C18.8842537,47.8611018 18.8664614,47.5784018 18.8664614,47.2798864 C18.9028295,44.1342936 20.5837771,41.2374531 23.296746,39.6450096 C23.7675938,39.3714259 23.9284782,38.7685516 23.656546,38.296748 L17.7040307,27.9732558 Z" id="Path" fill="currentColor" fill-rule="nonzero" transform="translate(13.894386, 38.122534) scale(1, -1) translate(-13.894386, -38.122534) "></path>
        <circle id="Oval" fill="currentColor" fill-rule="nonzero" transform="translate(27.703308, 28.973089) scale(1, -1) translate(-27.703308, -28.973089) " cx="27.7033075" cy="28.9730886" r="4.94230766"></circle>
    </g>
</svg>