<?xml version="1.0" encoding="UTF-8"?>
<svg width="55px" height="55px" viewBox="0 0 55 55" version="1.1" xmlns="http://www.w3.org/2000/svg" xmlns:xlink="http://www.w3.org/1999/xlink">
    <title>severity-level-1of4</title>
    <g id="severity-level-1of4" stroke="none" stroke-width="1" fill="currentColor" fill-rule="evenodd">
        <path d="M32.4659968,4.66091481 C30.3652789,8.31281225 30.8098364,11.730214 33.0457679,15.1212522 L33.2259968,15.3889148 C35.0099968,17.9829148 36.7259968,20.6529148 38.1709968,23.4459148 C41.2079968,29.3149148 40.6199968,34.9869148 36.7099968,40.3079148 C34.4728203,43.3526207 31.8848619,46.0483162 28.8560811,48.3007925 C27.2814249,49.8327407 26.0600968,50.7267148 25.1920968,50.9827148 C24.9023471,49.4134762 28.2929528,45.1614763 28.6588487,44.4129889 L29.0859632,43.5229785 L29.2319968,43.2279148 C31.0119968,39.7089148 30.3549968,36.5099148 28.0119968,33.5269148 C26.4313211,31.5148878 25.6300282,31.4508703 24.2453409,33.4677542 L24.0019968,33.8339148 C22.6099968,35.9929148 21.9439968,38.2909148 22.6589968,40.8989148 C22.7335423,41.170733 22.8425402,41.4398136 22.9572998,41.709467 L23.1605667,42.1880758 L23.2813763,42.4989303 C23.5070119,43.1235564 24.0057762,44.5999983 24.0831347,44.9403113 L24.115533,45.1164693 L24.1677465,45.4808142 C24.1778398,45.5402105 24.1895584,45.5980548 24.2042968,45.6530148 L23.2029012,44.601076 L23.1999968,44.6099148 C13.3399968,38.1589148 11.5299968,27.3969148 17.1719968,18.6509148 C20.8399968,12.9669148 25.5709968,8.35291481 30.9199968,4.30591481 C31.5889968,3.79991481 32.0929968,3.92391481 32.4659968,4.66091481 Z" id="Path" fill="currentColor"></path>
    </g>
</svg>