<?xml version="1.0" encoding="UTF-8"?>
<svg width="55px" height="55px" viewBox="0 0 55 55" version="1.1" xmlns="http://www.w3.org/2000/svg" xmlns:xlink="http://www.w3.org/1999/xlink">
    <title>severity-level-2of2</title>
    <g id="severity-level-2of2" stroke="none" stroke-width="1" fill="none" fill-rule="evenodd">
        <path d="M2.59519505e-06,29.931385 C0.00379424519,33.4103224 2.82311443,36.2296134 6.30208794,36.2334024 L19.41042,36.2334024 C19.5919704,36.2334784 19.7627403,36.3195989 19.8707284,36.4655396 C19.9787165,36.6114802 20.011141,36.7999667 19.9581283,36.973603 C18.8112563,40.0679601 18.4782598,43.4049921 18.9910451,46.66496 C20.4416699,51.8257393 23.7004196,53.2786408 26.0585444,52.9578108 C28.6170084,52.536955 30.4624917,50.2780047 30.3645857,47.6870326 C30.3645857,40.7685633 36.5383351,33.2061424 41.9443762,31.0955395 C42.2005688,32.0868479 43.0907349,32.7824299 44.1145844,32.7913551 L52.7083336,32.7913551 C53.973986,32.7913551 55.0000026,31.7653517 55.0000026,30.4997124 L55.0000026,5.2916427 C55.0000026,4.02600338 53.973986,3 52.7083336,3 L44.1145844,3 C42.8489319,3 41.8229179,4.02600338 41.8229179,5.2916427 L41.8229179,6.04559315 C39.4647931,5.70872167 37.6979183,5.38560005 36.1808351,5.11060293 C33.1388375,4.4640157 30.0370387,4.14062695 26.927086,4.14582135 L12.0312541,4.14582135 C6.86125455,4.14582135 6.30208794,7.35412113 6.30208794,8.72910675 C6.30163079,9.42377614 6.42822739,10.112672 6.67562957,10.7617938 C4.3752952,12.2178747 3.41735318,15.0916709 4.38396312,17.6367219 C1.89722593,19.2091078 1.00575182,22.4094667 2.32146331,25.0410195 C0.850993872,26.2386278 -0.00171678709,28.0349414 2.59519505e-06,29.931385 Z" id="Path" fill="#000000" opacity="0.2"></path>
        <path d="M2.59519503e-06,29.931385 C0.00379424519,33.4103224 2.82311443,36.2296134 6.30208794,36.2334024 L19.41042,36.2334024 C19.5919704,36.2334784 19.7627403,36.3195989 19.8707284,36.4655396 C19.9787165,36.6114802 20.011141,36.7999667 19.9581283,36.973603 C18.8112563,40.0679601 18.4782598,43.4049921 18.9910451,46.66496 C20.4416699,51.8257393 23.7004196,53.2786408 26.0585444,52.9578108 C28.6170084,52.536955 30.4624917,50.2780047 30.3645857,47.6870326 C30.3645857,40.7685633 36.5383351,33.2061424 41.9443762,31.0955395 C42.2005688,32.0868479 43.0907349,32.7824299 44.1145844,32.7913551 L52.7083336,32.7913551 C53.973986,32.7913551 55.0000026,31.7653517 55.0000026,30.4997124 L55.0000026,5.2916427 C55.0000026,4.02600338 53.973986,3 52.7083336,3 L44.1145844,3 C42.8489319,3 41.8229179,4.02600338 41.8229179,5.2916427 L41.8229179,6.04559315 C39.4647931,5.70872167 37.6979183,5.38560005 36.1808351,5.11060293 C33.1388375,4.4640157 30.0370387,4.14062695 26.927086,4.14582135 L12.0312541,4.14582135 C6.86125455,4.14582135 6.30208794,7.35412113 6.30208794,8.72910675 C6.30163079,9.42377614 6.42822739,10.112672 6.67562957,10.7617938 C4.3752952,12.2178747 3.41735318,15.0916709 4.38396312,17.6367219 C1.89722593,19.2091078 1.00575182,22.4094667 2.32146331,25.0410195 C0.850993872,26.2386278 -0.00171678709,28.0349414 2.59519503e-06,29.931385 Z M46.4062508,9.30660071 C46.4062508,8.35737122 47.1757613,7.58786868 48.1250007,7.58786868 C49.07424,7.58786868 49.8437505,8.35737122 49.8437505,9.30660071 C49.8437505,10.2558302 49.07424,11.0253327 48.1250007,11.0253327 C47.6691599,11.0253327 47.2319891,10.8442526 46.909661,10.5219278 C46.5873329,10.199603 46.4062508,9.76243678 46.4062508,9.30660071 L46.4062508,9.30660071 Z M4.58331364,29.931385 C4.58460053,28.9826789 5.35337202,28.2139154 6.30208794,28.212653 L7.44792116,28.212653 C8.71357359,28.212653 9.73958761,27.1866496 9.73958761,25.9210103 C9.73958761,24.655371 8.71357359,23.6293676 7.44792116,23.6293676 C6.81509495,23.6293676 6.30208794,23.1163659 6.30208794,22.4835462 C6.30208794,21.8507266 6.81509495,21.3377249 7.44792116,21.3377249 L9.73958761,21.3377249 C11.00524,21.3377249 12.0312541,20.3117215 12.0312541,19.0460822 C12.0312541,17.7804429 11.00524,16.7544395 9.73958761,16.7544395 C9.1067614,16.7544395 8.59375439,16.2414378 8.59375439,15.6086181 C8.59375439,14.9757985 9.1067614,14.4627968 9.73958761,14.4627968 L12.0312541,14.4627968 C13.2969065,14.4627968 14.3229205,13.4367934 14.3229205,12.1711541 C14.3229205,10.9055148 13.2969065,9.87951138 12.0312541,9.87951138 C11.4396164,9.87193703 10.9510406,9.41514323 10.9037542,8.82535574 C11.275078,8.75346819 11.6531943,8.72272734 12.0312541,8.73369003 L26.927086,8.73369003 C29.7593775,8.73024749 32.5840296,9.02753578 35.3535435,9.62055576 C37.0356267,9.92992752 39.0683348,10.2965904 41.8229179,10.6747114 L41.8229179,26.326631 C33.8135437,28.4097342 25.7812528,38.6075443 25.7812528,47.6916159 C25.7812528,48.1316113 25.6002111,48.3791087 25.4329195,48.415775 C25.0593778,48.4638995 24.0579196,47.7832816 23.4047947,45.4366395 C22.7310447,43.0395812 24.3925029,37.6748457 25.5956278,34.8538335 C25.8981212,34.1460694 25.8251015,33.3337228 25.4012387,32.6912476 C24.9773759,32.0487724 24.2592892,31.6619896 23.4895863,31.6615752 L6.30208794,31.6615752 C5.84444396,31.6609724 5.40588531,31.4781242 5.08335875,31.1534509 C4.76083218,30.8287775 4.58090018,30.3890181 4.58331364,29.931385 Z" id="Shape" fill="#000000" fill-rule="nonzero"></path>
    </g>
</svg>